<svg id="wave" style="transform:rotate(0deg); transition: 0.3s" viewBox="0 0 1440 490" version="1.1" xmlns="http://www.w3.org/2000/svg">
<defs><linearGradient id="sw-gradient-0" x1="0" x2="0" y1="1" y2="0"><stop stop-color="rgba(62, 139.779, 243, 1)" offset="0%"></stop><stop stop-color="rgba(0, 0, 0, 1)" offset="100%"></stop></linearGradient></defs>
<path style="transform:translate(0, 0px); opacity:1" fill="url(#sw-gradient-0)" d="M0,294L21.8,285.8C43.6,278,87,261,131,269.5C174.5,278,218,310,262,318.5C305.5,327,349,310,393,269.5C436.4,229,480,163,524,179.7C567.3,196,611,294,655,277.7C698.2,261,742,131,785,81.7C829.1,33,873,65,916,73.5C960,82,1004,65,1047,122.5C1090.9,180,1135,310,1178,351.2C1221.8,392,1265,343,1309,269.5C1352.7,196,1396,98,1440,106.2C1483.6,114,1527,229,1571,236.8C1614.5,245,1658,147,1702,122.5C1745.5,98,1789,147,1833,163.3C1876.4,180,1920,163,1964,147C2007.3,131,2051,114,2095,122.5C2138.2,131,2182,163,2225,196C2269.1,229,2313,261,2356,245C2400,229,2444,163,2487,171.5C2530.9,180,2575,261,2618,302.2C2661.8,343,2705,343,2749,302.2C2792.7,261,2836,180,2880,138.8C2923.6,98,2967,98,3011,106.2C3054.5,114,3098,131,3120,138.8L3141.8,147L3141.8,490L3120,490C3098.2,490,3055,490,3011,490C2967.3,490,2924,490,2880,490C2836.4,490,2793,490,2749,490C2705.5,490,2662,490,2618,490C2574.5,490,2531,490,2487,490C2443.6,490,2400,490,2356,490C2312.7,490,2269,490,2225,490C2181.8,490,2138,490,2095,490C2050.9,490,2007,490,1964,490C1920,490,1876,490,1833,490C1789.1,490,1745,490,1702,490C1658.2,490,1615,490,1571,490C1527.3,490,1484,490,1440,490C1396.4,490,1353,490,1309,490C1265.5,490,1222,490,1178,490C1134.5,490,1091,490,1047,490C1003.6,490,960,490,916,490C872.7,490,829,490,785,490C741.8,490,698,490,655,490C610.9,490,567,490,524,490C480,490,436,490,393,490C349.1,490,305,490,262,490C218.2,490,175,490,131,490C87.3,490,44,490,22,490L0,490Z">
</path>
<defs><linearGradient id="sw-gradient-1" x1="0" x2="0" y1="1" y2="0"><stop stop-color="rgba(46.94, 86.626, 181.835, 1)" offset="0%"></stop><stop stop-color="rgba(103.894, 139.343, 186.388, 1)" offset="100%"></stop></linearGradient></defs>
<path style="transform:translate(0, 50px); opacity:0.9" fill="url(#sw-gradient-1)" d="M0,343L21.8,351.2C43.6,359,87,376,131,383.8C174.5,392,218,392,262,383.8C305.5,376,349,359,393,343C436.4,327,480,310,524,269.5C567.3,229,611,163,655,130.7C698.2,98,742,98,785,114.3C829.1,131,873,163,916,147C960,131,1004,65,1047,73.5C1090.9,82,1135,163,1178,179.7C1221.8,196,1265,147,1309,114.3C1352.7,82,1396,65,1440,73.5C1483.6,82,1527,114,1571,114.3C1614.5,114,1658,82,1702,122.5C1745.5,163,1789,278,1833,285.8C1876.4,294,1920,196,1964,155.2C2007.3,114,2051,131,2095,179.7C2138.2,229,2182,310,2225,318.5C2269.1,327,2313,261,2356,204.2C2400,147,2444,98,2487,81.7C2530.9,65,2575,82,2618,147C2661.8,212,2705,327,2749,318.5C2792.7,310,2836,180,2880,155.2C2923.6,131,2967,212,3011,253.2C3054.5,294,3098,294,3120,294L3141.8,294L3141.8,490L3120,490C3098.2,490,3055,490,3011,490C2967.3,490,2924,490,2880,490C2836.4,490,2793,490,2749,490C2705.5,490,2662,490,2618,490C2574.5,490,2531,490,2487,490C2443.6,490,2400,490,2356,490C2312.7,490,2269,490,2225,490C2181.8,490,2138,490,2095,490C2050.9,490,2007,490,1964,490C1920,490,1876,490,1833,490C1789.1,490,1745,490,1702,490C1658.2,490,1615,490,1571,490C1527.3,490,1484,490,1440,490C1396.4,490,1353,490,1309,490C1265.5,490,1222,490,1178,490C1134.5,490,1091,490,1047,490C1003.6,490,960,490,916,490C872.7,490,829,490,785,490C741.8,490,698,490,655,490C610.9,490,567,490,524,490C480,490,436,490,393,490C349.1,490,305,490,262,490C218.2,490,175,490,131,490C87.3,490,44,490,22,490L0,490Z">
</path>
<defs><linearGradient id="sw-gradient-2" x1="0" x2="0" y1="1" y2="0"><stop stop-color="rgba(52.116, 82.587, 136.299, 1)" offset="0%"></stop><stop stop-color="rgba(87.094, 138.416, 168.174, 1)" offset="100%"></stop></linearGradient></defs>
<path style="transform:translate(0, 100px); opacity:0.8" fill="url(#sw-gradient-2)" d="M0,49L21.8,73.5C43.6,98,87,147,131,138.8C174.5,131,218,65,262,81.7C305.5,98,349,196,393,253.2C436.4,310,480,327,524,285.8C567.3,245,611,147,655,147C698.2,147,742,245,785,253.2C829.1,261,873,180,916,155.2C960,131,1004,163,1047,163.3C1090.9,163,1135,131,1178,138.8C1221.8,147,1265,196,1309,245C1352.7,294,1396,343,1440,343C1483.6,343,1527,294,1571,285.8C1614.5,278,1658,310,1702,318.5C1745.5,327,1789,310,1833,310.3C1876.4,310,1920,327,1964,285.8C2007.3,245,2051,147,2095,114.3C2138.2,82,2182,114,2225,138.8C2269.1,163,2313,180,2356,187.8C2400,196,2444,196,2487,212.3C2530.9,229,2575,261,2618,294C2661.8,327,2705,359,2749,343C2792.7,327,2836,261,2880,196C2923.6,131,2967,65,3011,32.7C3054.5,0,3098,0,3120,0L3141.8,0L3141.8,490L3120,490C3098.2,490,3055,490,3011,490C2967.3,490,2924,490,2880,490C2836.4,490,2793,490,2749,490C2705.5,490,2662,490,2618,490C2574.5,490,2531,490,2487,490C2443.6,490,2400,490,2356,490C2312.7,490,2269,490,2225,490C2181.8,490,2138,490,2095,490C2050.9,490,2007,490,1964,490C1920,490,1876,490,1833,490C1789.1,490,1745,490,1702,490C1658.2,490,1615,490,1571,490C1527.3,490,1484,490,1440,490C1396.4,490,1353,490,1309,490C1265.5,490,1222,490,1178,490C1134.5,490,1091,490,1047,490C1003.6,490,960,490,916,490C872.7,490,829,490,785,490C741.8,490,698,490,655,490C610.9,490,567,490,524,490C480,490,436,490,393,490C349.1,490,305,490,262,490C218.2,490,175,490,131,490C87.3,490,44,490,22,490L0,490Z">
</path>
<defs><linearGradient id="sw-gradient-3" x1="0" x2="0" y1="1" y2="0"><stop stop-color="rgba(4.014, 16.139, 45.227, 1)" offset="0%"></stop><stop stop-color="rgba(45.03, 107.125, 143.129, 1)" offset="100%"></stop></linearGradient></defs>
<path style="transform:translate(0, 150px); opacity:0.7" fill="url(#sw-gradient-3)" d="M0,294L21.8,294C43.6,294,87,294,131,285.8C174.5,278,218,261,262,228.7C305.5,196,349,147,393,147C436.4,147,480,196,524,220.5C567.3,245,611,245,655,269.5C698.2,294,742,343,785,302.2C829.1,261,873,131,916,65.3C960,0,1004,0,1047,24.5C1090.9,49,1135,98,1178,114.3C1221.8,131,1265,114,1309,155.2C1352.7,196,1396,294,1440,302.2C1483.6,310,1527,229,1571,212.3C1614.5,196,1658,245,1702,253.2C1745.5,261,1789,229,1833,204.2C1876.4,180,1920,163,1964,171.5C2007.3,180,2051,212,2095,187.8C2138.2,163,2182,82,2225,114.3C2269.1,147,2313,294,2356,326.7C2400,359,2444,278,2487,245C2530.9,212,2575,229,2618,261.3C2661.8,294,2705,343,2749,375.7C2792.7,408,2836,425,2880,408.3C2923.6,392,2967,343,3011,326.7C3054.5,310,3098,327,3120,334.8L3141.8,343L3141.8,490L3120,490C3098.2,490,3055,490,3011,490C2967.3,490,2924,490,2880,490C2836.4,490,2793,490,2749,490C2705.5,490,2662,490,2618,490C2574.5,490,2531,490,2487,490C2443.6,490,2400,490,2356,490C2312.7,490,2269,490,2225,490C2181.8,490,2138,490,2095,490C2050.9,490,2007,490,1964,490C1920,490,1876,490,1833,490C1789.1,490,1745,490,1702,490C1658.2,490,1615,490,1571,490C1527.3,490,1484,490,1440,490C1396.4,490,1353,490,1309,490C1265.5,490,1222,490,1178,490C1134.5,490,1091,490,1047,490C1003.6,490,960,490,916,490C872.7,490,829,490,785,490C741.8,490,698,490,655,490C610.9,490,567,490,524,490C480,490,436,490,393,490C349.1,490,305,490,262,490C218.2,490,175,490,131,490C87.3,490,44,490,22,490L0,490Z"></path></svg>